<svg aria-hidden="true" style="width:0;height:0;position:absolute;overflow:hidden" xmlns="http://www.w3.org/2000/svg"><defs><symbol id="icon-close" viewBox="0 0 32 32"><path d="M31.439 3.166 28.273 0 15.719 12.552 3.167 0 .001 3.166l12.552 12.552L.001 28.272l3.166 3.166 12.552-12.554 12.554 12.554 3.166-3.166-12.554-12.554L31.439 3.166z"/></symbol><symbol id="icon-arrow-right" viewBox="0 0 53 32"><path d="m38.208 1.042-2.514 2.514L46.36 14.222H0v3.556h46.36L35.694 28.444l2.514 2.514L53.166 16 38.208 1.042z"/></symbol><symbol id="icon-arrow-left" viewBox="0 0 55 32"><path d="M53.482 14.222H7.122L17.788 3.556l-2.514-2.514L.316 16l14.958 14.958 2.514-2.514L7.122 17.778h46.36v-3.556z"/></symbol><symbol id="icon-telegram" viewBox="0 0 34 32"><path d="M31.246 1.679c-.406.03-.804.125-1.179.282h-.005c-.36.143-2.072.863-4.674 1.954l-9.325 3.927c-6.691 2.817-13.268 5.591-13.268 5.591l.078-.03s-.453.149-.927.474c-.293.186-.544.43-.74.716-.232.341-.419.863-.35 1.402.114.912.705 1.459 1.129 1.761.429.306.839.448.839.448h.01l6.168 2.078c.277.888 1.88 6.158 2.265 7.372.227.725.448 1.178.725 1.525.134.177.291.325.479.443.098.057.202.102.311.134l-.063-.015c.019.005.034.02.048.025.051.014.085.019.149.029.976.296 1.761-.311 1.761-.311l.044-.035 3.642-3.316 6.104 4.682.139.059c1.272.558 2.561.248 3.241-.301.686-.552.952-1.258.952-1.258l.044-.114L33.56 5.038c.134-.596.168-1.155.02-1.696a2.283 2.283 0 0 0-.987-1.323 2.365 2.365 0 0 0-1.348-.341zm-.127 2.589c-.005.08.01.071-.025.224v.014l-4.672 23.912c-.02.034-.054.109-.148.183-.099.078-.177.128-.587-.035l-7.465-5.723-4.51 4.11.947-6.051L26.856 9.534c.503-.467.335-.566.335-.566.035-.573-.759-.168-.759-.168l-15.38 9.528-.005-.025-7.391-2.491a.25.25 0 0 0 .038-.015l.04-.02.039-.014s6.582-2.774 13.273-5.591c3.35-1.411 6.725-2.832 9.321-3.928 1.54-.648 3.081-1.292 4.623-1.933.104-.04.054-.04.129-.04V4.27z"/></symbol><symbol id="icon-facebook" viewBox="0 0 32 32"><path d="M13.912 11.099v2.203h-1.613v2.693h1.613V24h3.315v-8.005h2.224s.21-1.291.31-2.704h-2.522v-1.84c0-.277.362-.646.72-.646h1.805V8h-2.456c-3.478 0-3.397 2.696-3.397 3.099z"/><path d="M6.4 3.2a3.2 3.2 0 0 0-3.2 3.2v19.2a3.2 3.2 0 0 0 3.2 3.2h19.2a3.2 3.2 0 0 0 3.2-3.2V6.4a3.2 3.2 0 0 0-3.2-3.2H6.4zm0-3.2h19.2A6.403 6.403 0 0 1 32 6.401v19.2a6.402 6.402 0 0 1-6.4 6.4H6.4a6.4 6.4 0 0 1-6.401-6.4v-19.2A6.4 6.4 0 0 1 6.4 0z"/></symbol><symbol id="icon-instagram" viewBox="0 0 32 32"><path d="M9.404.096C11.11.017 11.654 0 16 0s4.89.019 6.595.096 2.868.349 3.887.743a7.88 7.88 0 0 1 2.833 1.847 7.803 7.803 0 0 1 1.844 2.832c.396 1.018.666 2.182.745 3.884.079 1.709.096 2.253.096 6.598 0 4.346-.019 4.89-.096 6.596-.077 1.702-.349 2.865-.745 3.884a7.85 7.85 0 0 1-1.844 2.835 7.832 7.832 0 0 1-2.833 1.844c-1.018.396-2.182.666-3.884.745C20.89 31.983 20.346 32 16 32s-4.89-.019-6.596-.096c-1.702-.077-2.865-.349-3.884-.745a7.85 7.85 0 0 1-2.835-1.844 7.846 7.846 0 0 1-1.846-2.833C.445 25.464.174 24.3.096 22.598.017 20.889 0 20.345 0 16c0-4.346.019-4.89.096-6.595s.349-2.868.743-3.887a7.854 7.854 0 0 1 1.847-2.833A7.843 7.843 0 0 1 5.518.839C6.536.445 7.7.174 9.402.096h.001zm13.061 2.88c-1.687-.077-2.193-.093-6.465-.093s-4.778.016-6.465.093c-1.561.071-2.407.332-2.972.551a4.972 4.972 0 0 0-1.84 1.196 4.966 4.966 0 0 0-1.196 1.84c-.22.564-.48 1.411-.551 2.972-.077 1.687-.093 2.193-.093 6.465s.016 4.778.093 6.465c.071 1.561.332 2.407.551 2.972a4.962 4.962 0 0 0 1.196 1.84c.516.531 1.146.94 1.84 1.196.564.22 1.411.48 2.972.551 1.687.077 2.192.093 6.465.093s4.778-.016 6.465-.093c1.561-.071 2.407-.332 2.972-.551a4.972 4.972 0 0 0 1.84-1.196 4.962 4.962 0 0 0 1.196-1.84c.22-.564.48-1.411.551-2.972.077-1.687.093-2.193.093-6.465s-.016-4.778-.093-6.465c-.071-1.561-.332-2.407-.551-2.972a4.972 4.972 0 0 0-1.196-1.84 4.974 4.974 0 0 0-1.84-1.196c-.564-.22-1.411-.48-2.972-.551zm-8.509 17.956a5.335 5.335 0 0 0 6.488-1.962 5.342 5.342 0 0 0-2.646-7.995 5.34 5.34 0 0 0-7.078 4.243 5.334 5.334 0 0 0 3.236 5.714zm-3.771-10.747A8.232 8.232 0 0 1 16 7.776a8.23 8.23 0 0 1 7.598 5.077 8.21 8.21 0 0 1 0 6.294 8.225 8.225 0 1 1-13.413-8.962zm15.863-1.184a1.958 1.958 0 0 0 .611-1.386 1.953 1.953 0 0 0-.569-1.403 1.948 1.948 0 0 0-1.403-.569 1.945 1.945 0 1 0 1.363 3.36z"/></symbol><symbol id="icon-map" viewBox="0 0 20 32"><path d="M10 .018c-5.524 0-10 4.458-10 9.98 0 9.548 10 22 10 22s10-12.454 10-22c0-5.52-4.476-9.98-10-9.98zm0 15.502a5.397 5.397 0 0 1-5.4-5.4 5.397 5.397 0 0 1 5.4-5.4 5.397 5.397 0 0 1 5.4 5.4 5.397 5.397 0 0 1-5.4 5.4z"/></symbol><symbol id="icon-tel" viewBox="0 0 19 32"><path d="M15.6 0a3.602 3.602 0 0 1 3.6 3.6v24.8a3.602 3.602 0 0 1-3.6 3.6h-12A3.602 3.602 0 0 1 0 28.4V3.6A3.602 3.602 0 0 1 3.6 0h12zm0 2.4h-12a1.195 1.195 0 0 0-1.2 1.2v24.8c0 .662.538 1.2 1.2 1.2h12a1.206 1.206 0 0 0 1.2-1.2V3.6a1.2 1.2 0 0 0-1.2-1.2zm-4.002 22.4a1.203 1.203 0 0 1 .852 2.047c-.225.225-.53.352-.848.353l-4 .006a1.203 1.203 0 0 1-.852-2.047c.225-.225.53-.352.848-.353l4-.006z"/></symbol></defs></svg>